
        <svg xmlns="http://www.w3.org/2000/svg" xmlns:xlink="http://www.w3.org/1999/xlink" version="1.1" width="3193.0731553969235" 
        height="1453.1350853436122" viewBox="0 0 3193.0731553969235 1453.1350853436122">
			<rect fill="#521262" width="3193.0731553969235" height="1453.1350853436122"/>
			<g transform="scale(9.65365776984617) translate(10, 10)">
				<defs id="SvgjsDefs6408"></defs><g id="SvgjsG6409" featureKey="symbolFeature-0" transform="matrix(0.9860636917826294,0,0,0.9860636917826294,-11.40382900284817,15.990665376876414)" fill="#ffffff"><path xmlns="http://www.w3.org/2000/svg" d="M29.399,57.112c0.615,0.308,1.077,0.846,1.077,1.383c0,1.039-1.038,1.961-1.999,1.462l-15.223-7.881  c-0.846-0.499-1.576-0.808-1.576-1.884c0-1.115,0.692-1.385,1.576-1.922l15.223-7.881c1.038-0.346,1.999,0.424,1.999,1.462  c0,0.575-0.461,1.114-1.077,1.423l-13.761,6.918L29.399,57.112z"></path><path xmlns="http://www.w3.org/2000/svg" d="M29.033,60.209c-0.208,0-0.413-0.052-0.608-0.152l-15.223-7.881c-0.086-0.05-0.165-0.095-0.242-0.141  c-0.748-0.431-1.395-0.804-1.395-1.843c0-1.057,0.594-1.406,1.346-1.849c0.093-0.054,0.187-0.11,0.284-0.169l15.229-7.885  c0.195-0.066,0.377-0.097,0.558-0.097c0.9,0,1.606,0.728,1.606,1.658c0,0.587-0.437,1.172-1.139,1.522l-13.562,6.818l13.562,6.818  c0.691,0.346,1.139,0.93,1.139,1.484C30.588,59.407,29.861,60.209,29.033,60.209z M28.982,40.419c-0.156,0-0.314,0.026-0.47,0.078  L13.306,48.37c-0.091,0.057-0.188,0.113-0.281,0.167c-0.743,0.439-1.234,0.728-1.234,1.655c0,0.91,0.537,1.219,1.281,1.648  c0.079,0.045,0.158,0.09,0.239,0.139l15.217,7.877c0.162,0.084,0.332,0.127,0.504,0.127c0.697,0,1.33-0.709,1.33-1.488  c0-0.465-0.407-0.98-1.014-1.283l-13.962-7.02l13.962-7.02c0.616-0.308,1.014-0.828,1.014-1.321  C30.363,41.048,29.756,40.419,28.982,40.419z"></path><path xmlns="http://www.w3.org/2000/svg" d="M46.385,64.416c-0.231,0.691-0.922,1.077-1.614,0.961c-0.769-0.153-1.269-0.885-1.154-1.692  c0-0.076,0.039-0.191,0.077-0.307l9.88-27.831c0.23-0.692,0.922-1.038,1.614-0.923c0.73,0.154,1.269,0.885,1.153,1.652  c0,0.078-0.039,0.193-0.077,0.27L46.385,64.416z"></path><path xmlns="http://www.w3.org/2000/svg" d="M45.016,65.511c-0.088,0-0.177-0.008-0.263-0.022c-0.837-0.167-1.371-0.949-1.247-1.819  c-0.001-0.076,0.038-0.193,0.079-0.318l9.883-27.842c0.207-0.618,0.778-1.02,1.457-1.02c0.094,0,0.188,0.009,0.281,0.023  c0.812,0.172,1.369,0.97,1.247,1.781c0.001,0.086-0.047,0.22-0.087,0.302l-9.875,27.856C46.281,65.084,45.688,65.511,45.016,65.511z   M54.925,34.715c-0.58,0-1.068,0.34-1.244,0.867l-9.88,27.833c-0.035,0.104-0.07,0.213-0.07,0.27  c-0.108,0.767,0.349,1.439,1.062,1.582c0.071,0.012,0.147,0.018,0.223,0.018c0.575,0,1.083-0.363,1.263-0.904l9.881-27.872  c0.041-0.085,0.07-0.182,0.07-0.231c0.105-0.712-0.373-1.396-1.064-1.543C55.089,34.722,55.007,34.715,54.925,34.715z"></path><path xmlns="http://www.w3.org/2000/svg" d="M84.362,50.192L70.6,43.274c-0.614-0.309-1.075-0.848-1.075-1.423c0-1.038,1.037-1.962,1.998-1.462l15.223,7.881  c0.885,0.537,1.576,0.807,1.576,1.922c0,1.076-0.73,1.385-1.576,1.884l-15.223,7.881c-0.961,0.499-1.998-0.423-1.998-1.462  c0-0.537,0.461-1.075,1.075-1.383L84.362,50.192z"></path><path xmlns="http://www.w3.org/2000/svg" d="M70.967,60.209c-0.828,0-1.556-0.802-1.556-1.714c0-0.555,0.447-1.139,1.139-1.484l13.562-6.818L70.55,43.374  c-0.702-0.352-1.139-0.936-1.139-1.522c0-0.913,0.728-1.714,1.556-1.714c0.209,0,0.413,0.051,0.608,0.152l15.223,7.881  c0.104,0.062,0.198,0.119,0.29,0.173c0.753,0.442,1.347,0.792,1.347,1.849c0,1.039-0.646,1.412-1.395,1.843  c-0.078,0.046-0.157,0.091-0.237,0.138l-15.228,7.884C71.38,60.157,71.176,60.209,70.967,60.209z M70.967,40.363  c-0.696,0-1.33,0.709-1.33,1.488c0,0.493,0.397,1.013,1.014,1.321l13.962,7.02l-13.962,7.02c-0.606,0.305-1.014,0.82-1.014,1.283  c0,0.779,0.634,1.488,1.33,1.488c0.172,0,0.342-0.043,0.504-0.127l15.223-7.88c0.075-0.046,0.155-0.091,0.233-0.136  c0.744-0.43,1.282-0.738,1.282-1.648c0-0.928-0.491-1.216-1.235-1.655c-0.093-0.054-0.188-0.11-0.287-0.17l-15.216-7.876  C71.309,40.405,71.139,40.363,70.967,40.363z"></path></g><g id="SvgjsG6410" featureKey="nameFeature-0" transform="matrix(8.637131067855897,0,0,8.637131067855897,108.65415613725665,-219.2827825721014)" fill="#ffffff"><path d="M5.16 30.96 c0.04 0.08 0.12 0.12 0.12 0.24 c0.4 -0.04 0.6 0.12 0.84 0.24 c0 0.04 -0.08 0.04 -0.12 0.04 c0.36 0.36 0.84 0.88 0.6 1.44 c0.04 0.12 0.2 -0.16 0.32 0 c0 0.16 -0.12 0.2 -0.08 0.4 c-0.08 0.04 -0.12 -0.04 -0.28 0.04 c0.16 0.08 0.08 0.44 0.2 0.28 c0.16 0.16 -0.16 0.32 -0.2 0.44 c0.12 0 0.12 -0.08 0.24 -0.04 c-0.32 0.32 -0.2 0.8 -0.52 1.2 c0 0.04 0.12 0.04 0.2 0.04 c-0.44 1.08 -0.2 2.12 0.2 2.88 c-0.16 0.24 -0.36 0.04 -0.56 0.08 c-1.84 -1.4 -0.44 -3.96 -0.76 -6.2 c-0.64 0.4 -0.88 1.16 -1.48 1.56 c-0.44 0.88 -0.96 1.76 -1.6 2.48 c-0.76 1.24 -1.24 2.96 -2.92 3.12 c-1.2 -0.52 -0.88 -2.36 -0.36 -3.4 c0.24 -1.24 0.72 -2.28 1.12 -3.36 c0.52 0.04 1.24 0.04 1.6 0.56 c-0.2 0.6 -0.52 1.04 -0.68 1.64 c0.48 -0.32 0.64 -1 1.12 -1.32 c0.76 -1.04 1.32 -2.68 3 -2.36 z M4.28 31.4 l0.12 0 c0 -0.12 -0.04 -0.12 -0.12 -0.12 l0 0.12 z M4.84 31.4 c0.04 0 -0.04 -0.04 0 0 l0 0 z M4.56 31.560000000000002 c-0.28 0.2 -0.32 0.64 -0.68 0.72 c0 -0.04 -0.04 -0.04 -0.04 -0.08 c0 -0.12 0.16 -0.12 0.28 -0.16 c0 -0.12 0.16 -0.32 0.04 -0.4 c-0.04 0.12 -0.08 -0.08 -0.2 0 c-0.16 0.36 -0.52 0.44 -0.88 0.52 c-0.04 0.16 0.12 0.08 0.12 0.2 c-0.08 0 -0.16 0.08 -0.2 0.16 c-0.24 -0.04 -0.28 0.2 -0.36 0.32 c0.2 -0.08 0.48 -0.08 0.36 0.12 c-0.12 -0.12 -0.24 -0.04 -0.48 -0.04 c0 0.12 0.04 0.32 -0.12 0.24 c-0.04 0.24 0.2 0.16 0.24 0.32 c-0.12 0.04 -0.12 -0.08 -0.24 -0.04 c-0.04 0.12 -0.12 0.2 -0.16 0.28 c0.28 0.12 0.12 -0.2 0.36 -0.12 c-0.08 0.12 -0.08 0.28 -0.2 0.32 c0 -0.08 -0.16 -0.04 -0.2 -0.08 c-0.04 0.12 0.08 0.32 0 0.32 c-0.08 -0.04 -0.2 -0.16 -0.24 0 c0.28 0.08 0.12 0.2 0.04 0.4 c0.52 -0.04 0.28 -0.76 0.92 -0.68 c0.04 -0.12 0.12 -0.24 0.28 -0.24 c-0.08 -0.28 0.28 -0.4 0.48 -0.52 c0.12 -0.76 0.92 -1.08 1.08 -1.64 c-0.16 -0.04 -0.12 0.08 -0.2 0.08 l0 -0.12 c-0.16 0.08 -0.2 -0.08 -0.24 0.08 c0.04 0.04 0.12 0.08 0.24 0.04 z M4.2 31.52 c0.04 0.04 0 0 0 0 l0 0 z M4.08 32.480000000000004 c0.04 0.04 -0.04 0 0 0 l0 0 z M2.16 33.56 c0.2 0.04 0 -0.16 0 0 l0 0 z M1.92 34.76 c0.24 -0.04 0.04 -0.2 -0.04 -0.24 c-0.04 0.08 0.08 0.08 0.04 0.24 z M1.68 34.88 c0.08 0.16 0.12 -0.16 0 0 l0 0 z M5.72 35.24 c0.12 0.08 0.12 -0.24 0.04 -0.2 c0 0.08 -0.08 0.08 -0.04 0.2 z M5.72 35.519999999999996 l0 0.08 c0.12 0.08 0.12 -0.16 0.04 -0.12 c0 0 0 0.04 -0.04 0.04 z M5.56 35.96 c0.16 0 0.2 -0.12 0.24 -0.24 c-0.12 0 -0.28 0.04 -0.24 0.24 z M5.56 36.24 c0.12 0 0.2 -0.2 0.04 -0.2 c0 0.08 -0.04 0.12 -0.04 0.2 z M3 32.519999999999996 c-0.08 0.36 0.52 0.16 0.44 -0.16 c-0.12 0 -0.2 0.08 -0.2 0.24 c-0.12 0 -0.08 -0.12 -0.24 -0.08 z M3.88 32.36 c-0.16 0.08 -0.2 0.24 -0.32 0.32 c0.04 -0.16 0.12 -0.32 0.32 -0.32 z M3.48 32.76 c0.04 0.2 -0.2 0.32 -0.28 0.24 c0.12 -0.04 0.12 -0.24 0.28 -0.24 z M2.92 33.16 c-0.04 0.08 -0.08 0.16 -0.24 0.16 c0 -0.2 0.08 -0.24 0.24 -0.16 z M3 33.36 l0.12 0 l0 0.08 l-0.12 0 l0 -0.08 z M2.88 33.44 c0.2 0 0 0.36 -0.16 0.36 c-0.04 -0.2 0.2 -0.16 0.16 -0.36 z M6.76 33.480000000000004 c0.04 -0.16 0.04 0.2 0 0 l0 0 z M15.159999999999998 25.4 c0.48 0.88 0.16 1.88 -0.72 2.16 c-0.56 -0.2 -1.08 -0.4 -1.2 -1.04 c0.56 -0.4 0.96 -1.24 1.92 -1.12 z M16.16 37.52 l0 0.08 c-0.24 0.12 -0.48 0.24 -0.68 0.4 c0.2 0.04 0.56 -0.16 0.68 -0.4 c0.72 -0.12 1.2 -0.6 1.76 -0.96 c0.56 -0.16 0.96 -0.72 1.64 -0.92 c0.72 -0.64 1.48 -1 2.36 -1.52 c-0.04 0.16 -0.2 0.2 -0.12 0.4 c-0.56 0.08 -1.04 0.48 -1.24 0.8 c-1.52 0.72 -3.04 1.88 -4.56 2.8 c-0.08 0 -0.12 0 -0.12 0.08 c0.08 0 0.12 0 0.12 -0.08 c0.64 -0.36 1.44 -0.68 1.8 -1.04 c0.84 -0.4 1.8 -1.16 2.76 -1.76 c0.28 0.04 0.24 -0.24 0.48 -0.2 c0.04 0.16 -0.12 0.12 -0.08 0.28 c-0.2 0 -0.4 0 -0.4 0.2 c-0.04 0 -0.04 0.04 -0.04 0.04 c-0.08 0.04 -0.12 0.08 -0.2 0.12 c0 0.08 0.04 0.16 0.16 0.12 c-0.04 0.16 -0.12 0.08 -0.24 0.08 c0.04 0.2 -0.04 0.28 -0.16 0.4 c-0.12 0 -0.16 -0.04 -0.2 -0.16 c0 -0.12 0.08 -0.12 0.16 -0.12 c-0.36 -0.2 -0.52 0.6 -0.96 0.64 c0.04 0.12 0.2 0.12 0.08 0.28 c-0.12 0 -0.28 0.04 -0.24 -0.16 c-0.08 0 -0.04 0.16 -0.16 0.12 c-0.04 0.16 0.24 0 0.16 0.2 c-0.2 0.12 -0.16 -0.12 -0.4 -0.08 c-0.08 0.2 0.12 0.12 0.08 0.24 c-0.16 0.04 -0.12 -0.12 -0.28 -0.08 c-0.08 0.16 0.16 0.04 0.12 0.16 c-0.36 0.32 -1.04 0.88 -1.76 1.24 c-0.08 0 -0.04 0.12 -0.04 0.2 c-0.28 0 -0.4 0.2 -0.44 0.4 c-2 1.48 -5.72 2 -6.52 -1.04 c-0.04 -0.76 0.04 -1.08 0.2 -1.88 c0.68 -1.68 0.84 -3.6 2.28 -4.68 c0.76 0.08 1.16 0.56 1.32 1.28 c-0.12 0.04 -0.24 0.08 -0.4 0.08 c-0.8 1.36 -1.52 3.12 -1.76 4.72 c-0.28 0.36 -0.2 0.8 -0.12 1.36 c1.4 0.2 3.28 -0.72 4.52 -1.4 c0 -0.08 -0.08 -0.12 -0.04 -0.2 c0.24 -0.04 0.2 -0.12 0.48 -0.04 z M20.2 35.88 c0 0.04 -0.04 -0.04 0 0 l0 0 z M18.759999999999998 36.68 c-0.12 0.16 0.16 -0.12 0 0 l0 0 z M15.919999999999998 37.6 c-0.12 0.16 0.16 -0.12 0 0 l0 0 z M18.08 37.6 c-0.12 0.16 0.16 -0.12 0 0 l0 0 z M15.559999999999999 38.44 c0.16 0 0.24 -0.04 0.2 -0.16 c-0.12 0 -0.16 0.08 -0.2 0.16 z M22.04 34.2 c0.12 0 0.2 0 0.2 -0.08 l0.12 0 c0 -0.08 -0.04 -0.12 -0.12 -0.12 c0.12 -0.16 0.32 -0.24 0.4 -0.48 c-1.76 0.8 -3.24 2.16 -4.92 2.88 c-0.12 0.04 0.12 0.08 0.12 0.16 c-0.56 0.16 -0.8 0.64 -1.36 0.76 c0 -0.04 0 -0.08 -0.04 -0.08 c2.2 -1.56 4.4 -3.08 6.96 -4.24 c-0.04 0.12 -0.28 0.12 -0.32 0.24 c0.08 0.16 0.16 -0.12 0.32 -0.04 c-0.44 0.4 -0.72 0.96 -1.4 1.16 c0 -0.08 0.08 -0.08 0.04 -0.16 z M22.68 33.519999999999996 c0.08 0 0.2 0 0.2 -0.12 c-0.08 0 -0.2 0 -0.2 0.12 z M22.52 33.92 c0.08 0.2 0.08 -0.2 0 0 l0 0 z M16.52 37.24 c0.2 0.04 0.04 -0.16 0 0 l0 0 z M22.24 34.12 c-0.08 0 -0.16 0 -0.2 0.08 l-0.12 0 c0.04 -0.12 0.16 -0.12 0.24 -0.2 c0 0.08 0.08 0.04 0.08 0.12 z M21.919999999999998 34.72 c-0.04 0.08 -0.12 0.08 -0.2 0.12 c0 -0.12 0.08 -0.12 0.2 -0.12 z M21.159999999999997 35.16 c0.04 -0.2 0.24 -0.28 0.52 -0.28 c-0.12 0.16 -0.32 0.24 -0.52 0.28 z M21.04 35.2 c0 -0.04 0.04 -0.04 0.12 -0.04 c-0.04 0.04 -0.04 0.04 -0.12 0.04 z M20.919999999999998 35.6 c0 -0.16 0.2 0.04 0 0 l0 0 z M20.56 35.68 l0.12 0 l0 0.16 c-0.08 0 -0.2 0 -0.16 -0.12 c0.04 0 0.04 0 0.04 -0.04 z M19.799999999999997 36.4 l0 0 c0.04 0.04 -0.04 0 0 0 z M19.64 36.52 c0.04 -0.12 0.24 -0.04 0.24 0 c-0.08 0.12 -0.12 0.04 -0.24 0 z M17.84 36.56 c0.04 0 0.04 0 0.04 0.04 c-0.04 0 -0.04 0 -0.04 -0.04 z M19.52 36.56 c0.24 0.08 -0.12 0.4 -0.24 0.28 c0.04 -0.12 0.2 -0.12 0.24 -0.28 z M17.88 36.6 c0.04 0 0.04 0 0.04 0.04 c-0.04 0 -0.04 0 -0.04 -0.04 z M16.24 37.24 l0.16 0 c0.04 0.08 -0.16 0.16 0 0.16 c-0.08 0.16 -0.16 -0.08 -0.16 -0.16 z M16.479999999999997 37.32 l0 0 c-0.08 0.04 0 0.04 0 0 z M16.16 37.52 c0 -0.08 0.08 -0.04 0 0 l0 0 z"></path></g>
			</g>
		</svg>
	